/* XPM */
static char *openttd.64[] = {
/* columns rows colors chars-per-pixel */
"64 64 257 2",
"   c black",
".  c #07001F",
"X  c #1C0025",
"o  c #1E0031",
"O  c #290039",
"+  c #37003B",
"@  c #310B24",
"#  c #2F0042",
"$  c #320042",
"%  c #3D0049",
"&  c #3F0046",
"*  c #3F0050",
"=  c #5C0100",
"-  c #590400",
";  c #411A2A",
":  c #562334",
">  c #660200",
",  c #6B0000",
"<  c #730000",
"1  c #7B0000",
"2  c #790B03",
"3  c #751900",
"4  c #701515",
"5  c #7E2B00",
"6  c #6B2020",
"7  c #742323",
"8  c #7A2828",
"9  c #713636",
"0  c #450045",
"q  c #43004B",
"w  c #4D0044",
"e  c #4B004C",
"r  c #4C0B4C",
"t  c #430054",
"y  c #4B0052",
"u  c #4B005A",
"i  c #43005B",
"p  c #530543",
"a  c #540054",
"s  c #53005A",
"d  c #530C53",
"f  c #5C005C",
"g  c #511251",
"h  c #591B59",
"j  c #541649",
"k  c #5B0065",
"l  c #550266",
"z  c #570875",
"x  c #5B225B",
"c  c #5F285F",
"v  c #61134F",
"b  c #630063",
"n  c #6B006B",
"m  c #63066A",
"M  c #6B0272",
"N  c #660073",
"B  c #720072",
"V  c #7B007B",
"C  c #74027B",
"Z  c #6C166F",
"A  c #772157",
"S  c #612C61",
"D  c #653465",
"F  c #6C3C6C",
"G  c #743973",
"H  c #7D5A28",
"J  c #6B4C4C",
"K  c #674949",
"L  c #675656",
"P  c #724C4C",
"I  c #7A4C7A",
"U  c #754475",
"Y  c #79527C",
"T  c #6F416F",
"R  c #666767",
"E  c #697575",
"W  c #727E7E",
"Q  c #7C6666",
"!  c #770281",
"~  c #781684",
"^  c #752785",
"/  c #724C80",
"(  c #7C8585",
")  c #7D8888",
"_  c #738181",
"`  c #830000",
"'  c #8B0000",
"]  c #880908",
"[  c #831B00",
"{  c #851100",
"}  c #881717",
"|  c #940000",
" . c #9A0000",
".. c #9B0A00",
"X. c #950A06",
"o. c #991700",
"O. c #941515",
"+. c #8A2400",
"@. c #823800",
"#. c #952900",
"$. c #802323",
"%. c #8A2929",
"&. c #942E2E",
"*. c #A10000",
"=. c #AB0000",
"-. c #A20B00",
";. c #A41704",
":. c #A61515",
">. c #B00000",
",. c #A82200",
"<. c #B43600",
"1. c #A43A00",
"2. c #AE3232",
"3. c #8E1A26",
"4. c #8B267A",
"5. c #974900",
"6. c #9C5000",
"7. c #894500",
"8. c #82483D",
"9. c #875338",
"0. c #9B6639",
"q. c #8A6B26",
"w. c #A34D00",
"e. c #A75A00",
"r. c #BA4300",
"t. c #B84800",
"y. c #B05600",
"u. c #AA6000",
"i. c #B56C00",
"p. c #A77736",
"a. c #9C4242",
"s. c #975B5C",
"d. c #8F484B",
"f. c #994A71",
"g. c #8E6868",
"h. c #B65959",
"j. c #AA504B",
"k. c #B0706C",
"l. c #A76459",
"z. c #C87800",
"x. c #D57800",
"c. c #C56463",
"v. c #810081",
"b. c #820689",
"n. c #85188C",
"m. c #8B1696",
"M. c #902E99",
"N. c #A03F9B",
"B. c #943CA3",
"V. c #844590",
"C. c #894694",
"Z. c #8D4B97",
"A. c #845884",
"S. c #934F91",
"D. c #9947A5",
"F. c #9554A9",
"G. c #886188",
"H. c #926A92",
"J. c #916791",
"K. c #997599",
"L. c #9862A5",
"P. c #A755B2",
"I. c #A17DA1",
"U. c #B067BB",
"Y. c #B469B4",
"T. c #BD7BC1",
"R. c #B6882C",
"E. c #B88065",
"W. c #BD8A4F",
"Q. c #D49200",
"!. c #DC9A00",
"~. c #D89900",
"^. c #C49C2E",
"/. c #C99B35",
"(. c #D29D3D",
"). c #DFA500",
"_. c #CBA42D",
"`. c #C5A42A",
"'. c #CFA531",
"]. c #D0A532",
"[. c #DAA53D",
"{. c #D6B22C",
"}. c #E29700",
"|. c #E6A800",
" X c #E9B400",
".X c #EDBB00",
"XX c #F2BA00",
"oX c #E2B932",
"OX c #CA9C40",
"+X c #CC9953",
"@X c #D5AA57",
"#X c #D3AB4A",
"$X c #D3A664",
"%X c #FECD00",
"&X c #FAC300",
"*X c #FFD300",
"=X c #FFDA00",
"-X c #FBD21E",
";X c #EACA28",
":X c #F3D42A",
">X c #F6D928",
",X c #EECD31",
"<X c #FFE300",
"1X c #FFEB00",
"2X c #FFEA1D",
"3X c #FEE51E",
"4X c #FFF41D",
"5X c #FFFB1C",
"6X c #FEE524",
"7X c #FFEB23",
"8X c #FFF222",
"9X c #FFF923",
"0X c #E7C15A",
"qX c #818B8B",
"wX c #868888",
"eX c #889191",
"rX c #879090",
"tX c #919797",
"yX c #9EA2A2",
"uX c #AD9496",
"iX c #A985A9",
"pX c #A987A9",
"aX c #B496B4",
"sX c #A0A4A4",
"dX c #A8AAAA",
"fX c #BEA3BE",
"gX c #B6B8B8",
"hX c #A2B1B1",
"jX c #BAC6C6",
"kX c #C78B8B",
"lX c #C890B4",
"zX c #CAA685",
"xX c #CEA6A7",
"cX c #C4A9C4",
"vX c #CCB5CC",
"bX c #D4BCD4",
"nX c #C993D2",
"mX c #CBCBCB",
"MX c #C3C4C4",
"NX c #D6C1D6",
"BX c #DAC6DA",
"VX c #D5D5D5",
"CX c #DADADA",
"ZX c #CED9D9",
"AX c #EDD9D9",
"SX c #E1CCE1",
"DX c #E5D4E5",
"FX c #E3E3E3",
"GX c #ECECEC",
"HX c #E2EAEA",
"JX c #FBEEFB",
"KX c #F4F4F4",
"LX c #FEFEFE",
"PX c #FAF1FA",
"IX c #EFEDEF",
"UX c #DDE7E7",
"YX c None",
/* pixels */
"YXYXYXYXYXYXYXYXYXYXYXYXYXYXYXYXYXYXYXYXYXYXYXYXYXYXYXYXYXYXH.x G.YXYXYXYXYXYXYXYXYXYXYXYXYXYXYXYXYXYXYXYXYXYXYXYXYXYXYXYXYXYXYX",
"YXYXYXYXYXYXYXYXYXYXYXYXYXYXYXYXYXYXYXYXYXYXYXYXYXYXYXYXYXfXg B d G YXYXYXYXYXYXYXYXYXYXYXYXYXYXYXYXYXYXYXYXYXYXYXYXYXYXYXYXYXYX",
"YXYXYXYXYXYXYXYXYXYXYXYXYXYXYXYXYXYXYXYXYXYXYXYXYXYXYXYXNXS B v.V h cXYXYXYXYXYXYXYXYXYXYXYXYXYXYXYXYXYXYXYXYXYXYXYXYXYXYXYXYXYX",
"YXYXYXYXYXYXYXYXYXYXYXYXYXYXYXYXYXYXYXYXYXYXYXYXYXYXYXI.S n v.! v.B h I.YXYXYXYXYXYXYXYXYXYXYXYXYXYXYXYXYXYXYXYXYXYXYXYXYXYXYXYX",
"YXYXYXYXYXYXYXYXYXYXYXYXYXYXYXYXYXYXYXYXYXYXYXYXYXYXLXS b v.v.4.v.v.B g cXYXYXYXYXYXYXYXYXYXYXYXYXYXYXYXYXYXYXYXYXYXYXYXYXYXYXYX",
"YXYXYXYXYXYXYXYXYXYXYXYXYXYXYXYXYXYXYXYXYXYXYXYXYXBXI f v.v.V 4.4.v.v.n F vXYXYXYXYXYXYXYXYXYXYXYXYXYXYXYXYXYXYXYXYXYXYXYXYXYXYX",
"YXYXYXYXYXYXYXYXYXYXYXYXYXYXYXYXYXYXYXYXYXYXYXYXYXF f v.v.4.! m.! v.v.v.b D H.YXYXYXYXYXYXYXYXYXYXYXYXYXYXYXYXYXYXYXYXYXYXYXYXYX",
"YXYXYXYXYXYXYXYXYXYXYXYXYXYXYXYXYXYXYXYXYXYXYXLXK.a v.v.v.V P.Y.N.! v.v.v.b D LXYXYXYXYXYXYXYXYXYXYXYXYXYXYXYXYXYXYXYXYXYXYXYXYX",
"YXYXYXYXYXYXYXYXYXYXYXYXYXYXYXYXYXYXYXYXYXYXYXH.a ! V 4.b.N.nX2X#XV v.v.v.v.f A.cXYXYXYXYXYXYXYXYXYXYXYXYXYXYXYXYXYXYXYXYXYXYXYX",
"YXYXYXYXYXYXYXYXYXYXYXYXYXYXYXYXYXYXYXYXYXYXU s V v.v.M.U.Y.lX2XoX4.m.m.v.v.v.a F YXYXYXYXYXYXYXYXYXYXYXYXYXYXYXYXYXYXYXYXYXYXYX",
"YXYXYXYXYXYXYXYXYXYXYXYXYXYXYXYXYXYXYXYXYXfXg C 4.! U.lX0X3X2X6X6X4X:Xk.b.! v.! a I.YXYXYXYXYXYXYXYXYXYXYXYXYXYXYXYXYXYXYXYXYXYX",
"YXYXYXYXYXYXYXYXYXYXYXYXYXYXYXYXYXYXYXYXpXh B 4.V P.xX3X2X3X6X6X6X6X6X4XOX! V V V r K.YXYXYXYXYXYXYXYXYXYXYXYXYXYXYXYXYXYXYXYXYX",
"YXYXYXYXYXYXYXYXYXYXYXYXYXYXYXYXYXYXYXNXg n V V n.lX>X6X7X8XoX7X:X:X6X6X5Xl.C V V B d I YXYXYXYXYXYXYXYXYXYXYXYXYXYXYXYXYXYXYXYX",
"YXYXYXYXYXYXYXYXYXYXYXYXYXYXYXYXYXYXSXD n V V C P.0X2X6X>X: z 7X/.i (.2X6X6XM C V V n x vXYXYXYXYXYXYXYXYXYXYXYXYXYXYXYXYXYXYXYX",
"YXYXYXYXYXYXYXYXYXYXYXYXYXYXYXYXYXiXS f V V B V U.2X6X7X: e B.4X'.i C :X2X8Xj.N V V V n x iXYXYXYXYXYXYXYXYXYXYXYXYXYXYXYXYXYXYX",
"YXYXYXYXYXYXYXYXYXYXYXYXYXYXYXYXLXF f B V B B n.kX4X7X{.O V D.5X'.t ! k.2X7X].l V B B V b g BXYXYXYXYXYXYXYXYXYXYXYXYXYXYXYXYXYX",
"YXYXYXYXYXYXYXYXYXYXYXYXYXYXYXDXA.a V B B B B M.$X7X7X0.t V D.4X'.t 4.S.5X8X:Xy V B B B V f G NXYXYXYXYXYXYXYXYXYXYXYXYXYXYXYXYX",
"YXYXYXYXYXYXYXYXYXYXYXYXYXYXYXU e B B B B B n M.@X7X8Xd.k C D.4X].t B ~ 9.: + s B B B B B B a D H.YXYXYXYXYXYXYXYXYXYXYXYXYXYXYX",
"YXYXYXYXYXYXYXYXYXYXYXYXYXYXpXa B B B B B n n n.+X7X7X0.l C D.4X'.t B B k s b B B B B B B B B a G.LXYXYXYXYXYXYXYXYXYXYXYXYXYXYX",
"YXYXYXYXYXYXYXYXYXYXYXYXYXI.d n B n B n B M M ~ E.7X7X(.l B F.5X'.q B n B B B B n B n B B n B n e G.YXYXYXYXYXYXYXYXYXYXYXYXYXYX",
"YXYXYXYXYXYXYXYXYXYXYXYXJ.r n n n n n n n n n C f.7X7X7XZ C F.4X'.t n n n n B n n B n B n n n B n a U LXYXYXYXYXYXYXYXYXYXYXYXYX",
"YXYXYXYXYXYXYXYXYXYXYXvXh n n n n n n n n n n n ~ :X7X7X;X4.P.4X'.i n n n n n n n n n n n n n n n n e aXYXYXYXYXYXYXYXYXYXYXYXYX",
"YXYXYXYXYXYXYXYXYXYXiXx b n n n n n n n n n n n N l.7X7X2X6X@X7X(.l C Z n n n n n n n n n n n n n n b g K.YXYXYXYXYXYXYXYXYXYXYX",
"YXYXYXYXYXYXYXYXYXDXj f n n b n n n n b n n n n n k (.4X6X6X6X6X>XOXk.~ M n n b n b n n n n b n n n n b r cXYXYXYXYXYXYXYXYXYXYX",
"YXYXYXYXYXYXYXYXDXF a n n b n n n b n b b n b b n n k p.7X7X6X6X6X7X7X,Xf.N m b n b n n b n b n n b b n f S bXYXYXYXYXYXYXYXYXYX",
"YXYXYXYXYXYXYXiXD a n b b n b b b n b b b b b n b b b l v /.7X7X6X6X6X7X4Xd.k b b b b b b b b n b n b b n a x iXYXYXYXYXYXYXYXYX",
"YXYXYXYXYXYXLXI e b b b b b b b b b b b b b b b b b b b f u m 7X>X6X7X6X6X8XA b b b b b b n b b b b b b b b a S LXYXYXYXYXYXYXYX",
"YXYXYXYXYXYXI 0 b b b b f b b b b b b b b b b f b b b b f b ^ 8X^.# R.7X7X7X{.u b b b b b f f b b b b b f b b 0 G YXYXYXYXYXYXYX",
"YXYXYXYXYXYXbXg f f b f b b f b f b b f b b f b f b f f b b C.4X_.# u d.8X7X9Xs f b k b f b b f f b b b b f f r fXYXYXYXYXYXYXYX",
"YXYXYXYXYXYXYXA.g f f b f f b f f f f b f f f f f f Z k f b C.4X'.$ k l oX7X4Xd.s f f f f b f b f f f f b f d I LXYXYXYXYXYXYXYX",
"YXYXYXYXYXYXYXYXpXg f f f f b f f b f f f f f Z C.L.F.k f b Z.5X_.$ f k W.7X8X0.y b f f f b f f f f f b f 0 H.YXYXYXYXYXYXYXYXYX",
"YXYXYXYXYXYXYXYXYXK.r f f f f f f f f f f f f L.$X@X,Xy d b C.5X_.# s z E.7X7XR.q f f f f f f f f f f f 0 H.LXYXYXYXYXYXYXYXYXYX",
"YXYXYXYXYXYXYXYXYXYXI 0 f f a f f f f f f f s J.6X6X8Xa a f C.5X'.# k Z $X7X8Xp.% f f f f f f f f f f 0 F H.YXYXYXYXYXYXYXYXYXYX",
"YXYXYXYXYXYXYXYXYXYXSXG.0 a f f a a f a a s s ^ :X6X8XH y k V.4X_.# k / $X6X8XH q f f a f a a f a f 0 U SXYXYXYXYXYXYXYXYXYXYXYX",
"YXYXYXYXYXYXYXYXYXYXYXLXx 0 a f f a a f f a a Z #X2X7X`.* f V.9X_.O f L.,X7X9X; a a a a a f a a a e S PXYXYXYXYXYXYXYXYXYXYXYXYX",
"YXYXYXYXYXYXYXYXYXYXYXYXpXF 0 s a a a f a a a k s.7X6X9Xv l V.8X`.$ Z.zX7X6X6Xo a a a a a a a f e c pXYXYXYXYXYXYXYXYXYXYXYXYXYX",
"YXYXYXYXYXYXYXYXYXYXYXYXYXPXT e a a a a a a a a l :X7X7X;XS Z.7X`.z uX6X7X8Xq.# a a a a a a a e S bXYXYXYXYXYXYXYXYXYXYXYXYXYXYX",
"YXYXYXYXYXYXYXYXYXYXYXYXYXYXI g e a a a e a a a y d.8X6X7X>X+X7XoX(.6X6X7X;XX t a a a a a a a r fXYXYXYXYXYXYXYXYXYXYXYXYXYXYXYX",
"YXYXYXYXYXYXYXYXYXYXYXYXYXYXYXaXx 0 a e a a e a y t p.9X7X6X7X7X7X7X6X8X3X@ + s a e e a e e g pXYXYXYXYXYXYXYXYXYXYXYXYXYXYXYXYX",
"YXYXYXYXYXYXYXYXYXYXYXYXYXYXYXYXNXr e e e a e a y u * H :X9X7X7X6X8X5X{.@ O e a e a a e e 0 aXYXYXYXYXYXYXYXYXYXYXYXYXYXYXYXYXYX",
"YXYXYXYXYXYXYXYXYXYXYXYXYXYXYXYXYXA.r e e e e a e e e % + : 0.7X;XH @ o O a e e e a e w 0 F LXYXYXYXYXYXYXYXYXYXYXYXYXYXYXYXYXYX",
"YXYXYXYXYXYXYXYXYXYXYXYXYXYXYXYXYXYXiX0 0 e e e e e e e e % t 7X^.. + 0 e e e e e e e + J.vXYXYXYXYXYXYXYXYXYXYXYXYXYXYXYXYXYXYX",
"YXYXYXYXYXYXYXYXYXYXYXYXYXYXYXYXYXYXLXA.0 e 0 e e e e e e e G 9X_.o r q e e e e y y + A.LXYXYXYXYXYXYXYXYXYXYXYXYXYXYXYXYXYXYXYX",
"YXYXYXYXYXYXYXYXYXYXYXYXYXYXYXYXYXYXYXYXY % q q q e w w w r G -XR.@ p p w w w w e ; I IXYXYXYXYXYXYXYXYXYXYXYXYXYXYXYXYXYXYXYXYX",
"YXYXYXYXYXYXYXYXYXYXYXYXYXAXkXa.:.kXh.:.j.3.] |  . .*.*.*.*. . . .*.*.*.*.*.*. . . .:.*.*.:.h.:.2.k.:.K.AXLXYXYXYXYXYXYXYXYXYXYX",
"YXYXYXYXYXYXYXYXYX%.1 ' ` } O.X.|  . . .*.*.*.*. .*. . . . . . . . . . . . . . . . . . . . .| ' ` ` ' { 4 > kXYXYXYXYXYXYXYXYXYX",
"YXYXYXYXYXYXYXYXYX7 < 1 1 ` ' '  . .*. . . . . . . . . . . . .*. . . . . . . . . . .|  . . .| | ' ` ` 1 < > mXLXYXYXYXYXYXYXYXYX",
"YXYXYXYXYXYXYXYXYX7 < 1 1 1 ` ' ' |  . .*.*. . . .*. . . .*. . . . . .| |  .| | | | | | |  .| ' ` ` 1 1 < > wXKXYXYXYXYXYXYXYXYX",
"YXYXYXYXYXYXYXYXYX7 < < 1 !.=X=X|.X. . . . . . . . . . . . . . . .;.*X%X%X*Xz.&X*X*X%X|.o.=X%X%X|.{ 1 1 < , g.CX*.=.=.=.=.=.=.YX",
"a.=.=.=.=.=.=.=. .2 < < x.).- > Q.!.` <...t... . .<.<.| | <...t.o.| 2 w. X> < { [ =X= 2 o.%X> 3 Q.Q.< 1 < , ] ]  . .|  . . .2.FX",
"g.'  . .|  . .| ' < < > XX@.1 | o.*X1 =X|.~.%X1 x.|.~.!.` *X).!.%X`  .r. X1  . ...<X>  .,.*X< ' o.=X= 1 < , ' |  . . . . . .yXVX",
"FXk.|  . . . .| | < < > *X@.` ' X.=X< *X3 1 *X+.*X5.1.<X1 *X3 ' =X1  .r. X1  . ...1X,  .,.*X< | o.<X- 1 < > '  . .| |  . .9 ) mX",
"YXHXO. . . . .| | < < , |.i.1 1 t.&X> *X[ ' %X+.*Xu.6.e.< *X[ *.<X<  .r. X<  . ...1X,  .,.%X> ' w..X= 1 < , ' |  . . . .} R gXCX",
"YXLXgX|  .|  .| | < < < #.*X}.}.=X5.` *X!.x.%X, }.Q.x..X1 *X+...1X<  .t.&X1  . ...1X,  .,.=X!.}.*X7.< 1 < , ' |  .|  . .L eXFXGX",
"YXYXLXs. . . .| ' < < < 1 3 e.u.3 1 | *X@.i.3 ' | e.e.2 ' y.{  .e.1  .;.6.'  . . .u.1  ...e.6.6.3 , 1 1 < , ' |  . . .9 W VXLXYX",
"YXYXYXgX| |  .| | < < 1 1 ` 1 1 '  . .=X[ | | *. .| |  . . .|  . . . . .|  . . . .|  . . .| ' ` ` ` ` 1 < , ' |  .|  .J gXLXYXYX",
"YXYXjX&. . . .| | < < 1 1 ` ' | |  . .#.1 *. . . .*.*.*. . .*. . .*.*. .*. . . . . . . . . . .| ' ` 1 < < , ' |  . . .X.ZXYXYXYX",
"YXYXk.|  . . .| | < , 1 1 ` ' |  .*. . . .X.O.} } $.$.$.%.$.8 8 8 8 8 8 $.$.$.$.} } O.' | | | | ' ' ` 1 < > ' |  .|  .| h.LXYXYX",
"YXuXX. .|  . .| ' < < 1 1 1 7 9 K J R R E E W _ ( ( ) qXqXqXrXrXeXeXeX) qXrXwXqX) ( _ _ W E Q L P < 1 1 < < ' |  .|  .| | xXLXYX",
"mXa. . .|  . . .| ' 1 1 < > E ) tXyXdXgXMXmXVXFXGXGXKXKXKXKXKXKXIXIXIXLXKXKXKXKXGXGXGXCXmXMXgXgXhX- , < 1 ` ' |  . . . . .O.GXYX",
"s.|  . . . . . .| ' ' 1 < = ) CXGXLXLXLXLXLXYXYXYXYXYXYXYXYXYXYXYXYXYXYXYXYXYXYXYXYXYXYXLXLXLXKXHX= > < 1 ` | |  .*. . . . .h.CX",
"&.j.%.7 8 } $.7 7 7 7 6 6 4 qXGXYXYXYXYXYXYXYXYXYXYXYXYXYXYXYXYXYXYXYXYXYXYXYXYXYXYXYXYXYXYXYXYXR uXQ K K J J J J J J J J J g.VX",
"FXZXeX) ( ) ( ( qXqX) ) ) ( dXLXYXYXYXYXYXYXYXYXYXYXYXYXYXYXYXYXYXYXYXYXYXYXYXYXYXYXYXYXYXYXYXYXYXLXgXyXsXsXsXsXsXsXsXsXyXyXyXVX",
"YXCXmXmXmXmXmXmXmXmXmXmXmXmXCXFXYXYXYXYXYXYXYXYXYXYXYXYXYXYXYXYXYXYXYXYXYXYXYXYXYXYXYXYXYXYXYXYXYXFXFXVXVXCXVXVXCXCXVXCXVXVXVXFX"
};
